<?xml version="1.0" encoding="UTF-8"?>
<svg role="img" viewBox="0 0 24 24" xmlns="http://www.w3.org/2000/svg">
  <title>GitHub</title>
  <path fill="#181717" d="M12 .297a12 12 0 00-3.797 23.397c.6.111.82-.261.82-.58 0-.287-.011-1.047-.017-2.054-3.338.726-4.042-1.61-4.042-1.61-.546-1.386-1.333-1.756-1.333-1.756-1.089-.744.083-.729.083-.729 1.205.085 1.84 1.238 1.84 1.238 1.07 1.834 2.807 1.304 3.492.997.108-.775.418-1.305.76-1.605-2.665-.305-5.467-1.332-5.467-5.93 0-1.31.468-2.381 1.236-3.221-.124-.303-.536-1.524.117-3.176 0 0 1.008-.322 3.3 1.23a11.52 11.52 0 016.003 0c2.29-1.553 3.297-1.23 3.297-1.23.655 1.653.243 2.874.12 3.176.77.84 1.235 1.911 1.235 3.221 0 4.61-2.807 5.624-5.48 5.922.43.372.814 1.102.814 2.222 0 1.604-.015 2.896-.015 3.289 0 .322.216.697.825.579A12.002 12.002 0 0012 .297z"/>
</svg>
