<?xml version="1.0" encoding="UTF-8"?>
<svg role="img" viewBox="0 0 24 24" xmlns="http://www.w3.org/2000/svg">
  <title>LinkedIn</title>
  <path fill="#0A66C2" d="M20.447 20.452h-3.554v-5.569c0-1.328-.025-3.036-1.849-3.036-1.85 0-2.133 1.445-2.133 2.94v5.665H9.356V9h3.413v1.561h.049c.476-.9 1.637-1.849 3.369-1.849 3.603 0 4.268 2.37 4.268 5.455v6.285zM5.337 7.433c-1.144 0-2.07-.927-2.07-2.07 0-1.143.926-2.07 2.07-2.07 1.143 0 2.07.927 2.07 2.07 0 1.143-.927 2.07-2.07 2.07zM6.952 20.452H3.722V9h3.23v11.452zM22.225 0H1.771C.792 0 0 .774 0 1.729v20.542C0 23.227.792 24 1.771 24h20.452C23.2 24 24 23.227 24 22.271V1.729C24 .774 23.2 0 22.225 0z"/>
</svg>
